<mxfile host="app.diagrams.net" agent="Mozilla/5.0 (Windows NT 10.0; Win64; x64) AppleWebKit/537.36 (KHTML, like Gecko) Chrome/138.0.0.0 Safari/537.36" version="28.0.6">
  <diagram name="Page-1" id="A5Qr49wmgip9gLN7uFpq">
    <mxGraphModel dx="1426" dy="751" grid="1" gridSize="10" guides="1" tooltips="1" connect="1" arrows="1" fold="1" page="1" pageScale="1" pageWidth="850" pageHeight="1100" math="0" shadow="0">
      <root>
        <mxCell id="0" />
        <mxCell id="1" parent="0" />
        <mxCell id="rCo2D-ddCyjcZcQKqc1b-20" value="" style="rounded=0;whiteSpace=wrap;html=1;fillColor=light-dark(#DAE8FC,#172125);strokeColor=#6c8ebf;" vertex="1" parent="1">
          <mxGeometry x="20" y="164" width="770" height="180" as="geometry" />
        </mxCell>
        <mxCell id="rCo2D-ddCyjcZcQKqc1b-3" style="edgeStyle=orthogonalEdgeStyle;rounded=0;orthogonalLoop=1;jettySize=auto;html=1;fillColor=#e1d5e7;strokeColor=#9673a6;" edge="1" parent="1" source="rCo2D-ddCyjcZcQKqc1b-1" target="rCo2D-ddCyjcZcQKqc1b-2">
          <mxGeometry relative="1" as="geometry" />
        </mxCell>
        <mxCell id="rCo2D-ddCyjcZcQKqc1b-1" value="Real LTTng Logs" style="rounded=0;whiteSpace=wrap;html=1;fillColor=#e1d5e7;strokeColor=#9673a6;" vertex="1" parent="1">
          <mxGeometry x="40" y="180" width="120" height="30" as="geometry" />
        </mxCell>
        <mxCell id="rCo2D-ddCyjcZcQKqc1b-5" style="edgeStyle=orthogonalEdgeStyle;rounded=0;orthogonalLoop=1;jettySize=auto;html=1;entryX=0;entryY=0.5;entryDx=0;entryDy=0;fillColor=#e1d5e7;strokeColor=#9673a6;" edge="1" parent="1" source="rCo2D-ddCyjcZcQKqc1b-2" target="rCo2D-ddCyjcZcQKqc1b-4">
          <mxGeometry relative="1" as="geometry" />
        </mxCell>
        <mxCell id="rCo2D-ddCyjcZcQKqc1b-2" value="Parse Log lines" style="rounded=1;whiteSpace=wrap;html=1;fillColor=#e1d5e7;strokeColor=#9673a6;" vertex="1" parent="1">
          <mxGeometry x="190" y="177.5" width="120" height="35" as="geometry" />
        </mxCell>
        <mxCell id="rCo2D-ddCyjcZcQKqc1b-7" style="edgeStyle=orthogonalEdgeStyle;rounded=0;orthogonalLoop=1;jettySize=auto;html=1;entryX=0;entryY=0.5;entryDx=0;entryDy=0;fillColor=#e1d5e7;strokeColor=#9673a6;" edge="1" parent="1" source="rCo2D-ddCyjcZcQKqc1b-4" target="rCo2D-ddCyjcZcQKqc1b-6">
          <mxGeometry relative="1" as="geometry" />
        </mxCell>
        <mxCell id="rCo2D-ddCyjcZcQKqc1b-4" value="Extract unique Event Examples" style="rounded=1;whiteSpace=wrap;html=1;fillColor=#e1d5e7;strokeColor=#9673a6;" vertex="1" parent="1">
          <mxGeometry x="340" y="177.5" width="120" height="35" as="geometry" />
        </mxCell>
        <mxCell id="rCo2D-ddCyjcZcQKqc1b-9" style="edgeStyle=orthogonalEdgeStyle;rounded=0;orthogonalLoop=1;jettySize=auto;html=1;entryX=0;entryY=0.5;entryDx=0;entryDy=0;fillColor=#e1d5e7;strokeColor=#9673a6;" edge="1" parent="1" source="rCo2D-ddCyjcZcQKqc1b-6" target="rCo2D-ddCyjcZcQKqc1b-8">
          <mxGeometry relative="1" as="geometry" />
        </mxCell>
        <mxCell id="rCo2D-ddCyjcZcQKqc1b-6" value="Pre-process Example Data" style="rounded=1;whiteSpace=wrap;html=1;fillColor=#e1d5e7;strokeColor=#9673a6;" vertex="1" parent="1">
          <mxGeometry x="490" y="177.5" width="120" height="35" as="geometry" />
        </mxCell>
        <mxCell id="rCo2D-ddCyjcZcQKqc1b-12" style="edgeStyle=orthogonalEdgeStyle;rounded=0;orthogonalLoop=1;jettySize=auto;html=1;entryX=0.5;entryY=0;entryDx=0;entryDy=0;fillColor=#e1d5e7;strokeColor=#9673a6;" edge="1" parent="1" source="rCo2D-ddCyjcZcQKqc1b-8" target="rCo2D-ddCyjcZcQKqc1b-11">
          <mxGeometry relative="1" as="geometry" />
        </mxCell>
        <mxCell id="rCo2D-ddCyjcZcQKqc1b-8" value="OpenAI-Client - o4-Mini Model" style="rounded=1;whiteSpace=wrap;html=1;fillColor=#e1d5e7;strokeColor=#9673a6;" vertex="1" parent="1">
          <mxGeometry x="650" y="170" width="130" height="50" as="geometry" />
        </mxCell>
        <mxCell id="rCo2D-ddCyjcZcQKqc1b-14" style="edgeStyle=orthogonalEdgeStyle;rounded=0;orthogonalLoop=1;jettySize=auto;html=1;entryX=1;entryY=0.5;entryDx=0;entryDy=0;fillColor=#e1d5e7;strokeColor=#9673a6;" edge="1" parent="1" source="rCo2D-ddCyjcZcQKqc1b-11" target="rCo2D-ddCyjcZcQKqc1b-13">
          <mxGeometry relative="1" as="geometry" />
        </mxCell>
        <mxCell id="rCo2D-ddCyjcZcQKqc1b-11" value="Generated Logs" style="rounded=1;whiteSpace=wrap;html=1;fillColor=#e1d5e7;strokeColor=#9673a6;" vertex="1" parent="1">
          <mxGeometry x="655" y="260" width="120" height="35" as="geometry" />
        </mxCell>
        <mxCell id="rCo2D-ddCyjcZcQKqc1b-16" style="edgeStyle=orthogonalEdgeStyle;rounded=0;orthogonalLoop=1;jettySize=auto;html=1;entryX=1;entryY=0.5;entryDx=0;entryDy=0;fillColor=#e1d5e7;strokeColor=#9673a6;" edge="1" parent="1" source="rCo2D-ddCyjcZcQKqc1b-13" target="rCo2D-ddCyjcZcQKqc1b-15">
          <mxGeometry relative="1" as="geometry" />
        </mxCell>
        <mxCell id="rCo2D-ddCyjcZcQKqc1b-13" value="Convert to Data Frame" style="rounded=1;whiteSpace=wrap;html=1;fillColor=#e1d5e7;strokeColor=#9673a6;" vertex="1" parent="1">
          <mxGeometry x="500" y="262.5" width="120" height="30" as="geometry" />
        </mxCell>
        <mxCell id="rCo2D-ddCyjcZcQKqc1b-15" value="Export to CSV" style="rounded=1;whiteSpace=wrap;html=1;fillColor=#e1d5e7;strokeColor=#9673a6;" vertex="1" parent="1">
          <mxGeometry x="350" y="262.5" width="120" height="30" as="geometry" />
        </mxCell>
        <mxCell id="rCo2D-ddCyjcZcQKqc1b-19" style="edgeStyle=orthogonalEdgeStyle;rounded=0;orthogonalLoop=1;jettySize=auto;html=1;entryX=0.5;entryY=1;entryDx=0;entryDy=0;fillColor=#e1d5e7;strokeColor=#9673a6;" edge="1" parent="1" source="rCo2D-ddCyjcZcQKqc1b-17" target="rCo2D-ddCyjcZcQKqc1b-1">
          <mxGeometry relative="1" as="geometry" />
        </mxCell>
        <mxCell id="rCo2D-ddCyjcZcQKqc1b-17" value="" style="ellipse;html=1;shape=startState;fillColor=#e1d5e7;strokeColor=#9673a6;" vertex="1" parent="1">
          <mxGeometry x="85" y="235" width="30" height="30" as="geometry" />
        </mxCell>
        <mxCell id="rCo2D-ddCyjcZcQKqc1b-21" value="&lt;h1 style=&quot;margin-top: 0px;&quot;&gt;&lt;font style=&quot;font-size: 20px;&quot;&gt;Synthetic Data Generation&amp;nbsp;&lt;/font&gt;&lt;span style=&quot;font-size: 20px; background-color: transparent; color: light-dark(rgb(0, 0, 0), rgb(255, 255, 255)); font-weight: normal;&quot;&gt;using o4-Mini Model&lt;/span&gt;&lt;/h1&gt;" style="text;html=1;whiteSpace=wrap;overflow=hidden;rounded=0;fillColor=#e1d5e7;strokeColor=#9673a6;align=left;" vertex="1" parent="1">
          <mxGeometry x="30" y="266" width="310" height="68" as="geometry" />
        </mxCell>
      </root>
    </mxGraphModel>
  </diagram>
</mxfile>
